<?xml version="1.0" encoding="UTF-8" standalone="no"?>
<!-- Created with Inkscape (http://www.inkscape.org/) -->

<svg
   width="9.5015392mm"
   height="7.473712mm"
   viewBox="0 0 9.5015392 7.473712"
   version="1.1"
   id="svg563"
   inkscape:version="1.2.2 (732a01da63, 2022-12-09)"
   sodipodi:docname="favicon-white.svg"
   xmlns:inkscape="http://www.inkscape.org/namespaces/inkscape"
   xmlns:sodipodi="http://sodipodi.sourceforge.net/DTD/sodipodi-0.dtd"
   xmlns="http://www.w3.org/2000/svg"
   xmlns:svg="http://www.w3.org/2000/svg">
  <sodipodi:namedview
     id="namedview565"
     pagecolor="#ffffff"
     bordercolor="#000000"
     borderopacity="0.25"
     inkscape:showpageshadow="2"
     inkscape:pageopacity="0.0"
     inkscape:pagecheckerboard="0"
     inkscape:deskcolor="#d1d1d1"
     inkscape:document-units="mm"
     showgrid="false"
     inkscape:zoom="41.403919"
     inkscape:cx="3.5383124"
     inkscape:cy="17.41381"
     inkscape:window-width="2560"
     inkscape:window-height="1377"
     inkscape:window-x="2552"
     inkscape:window-y="-8"
     inkscape:window-maximized="1"
     inkscape:current-layer="layer1" />
  <defs
     id="defs560" />
  <g
     inkscape:label="Vrstva 1"
     inkscape:groupmode="layer"
     id="layer1"
     transform="translate(-45.857799,-93.142405)">
    <g
       id="film._pas"
       transform="matrix(0.26458333,0,0,0.26458333,46.024502,93.175451)"
       style="fill:none;stroke:#ffffff;stroke-opacity:1">
      <path
         class="cls-2"
         d="M 29.5373,0.3751 28.9747,2.7865 C 28.9262,2.9943 28.7184,3.1628 28.5105,3.1628 H 11.1168 c -0.208,0 -0.3371,-0.1685 -0.2886,-0.3763 L 11.3908,0.3751 H 6.3474 L 0.1042,27.1365 H 0.1133 L 0,27.6222 H 5.0063 L 5.5197,25.422 c 0.0485,-0.2079 0.2562,-0.3763 0.464,-0.3763 h 17.3939 c 0.2079,0 0.3369,0.1685 0.2885,0.3763 l -0.3999,1.7144 h 0.0056 L 23.161,27.612 h 0.0065 l -0.0016,0.0067 h 5.1202 l 0.1125,-0.4823 H 28.408 L 34.6512,0.3751 Z M 6.7973,3.3041 7.113,1.951 C 7.1615,1.7432 7.3693,1.5746 7.5772,1.5746 h 1.8434 c 0.2078,0 0.3371,0.1686 0.2886,0.3764 L 9.3936,3.3041 C 9.3449,3.5119 9.1373,3.6804 8.9294,3.6804 H 7.0858 C 6.8781,3.6804 6.7489,3.5119 6.7973,3.3041 Z M 5.7431,7.823 5.8352,7.4283 C 5.8368,7.4095 5.8382,7.3905 5.8429,7.371 L 6.0534,6.4688 C 6.1019,6.2609 6.3097,6.0925 6.5175,6.0925 h 1.8346 c 0.1087,0 0.1949,0.0467 0.2464,0.1206 0.059,0.0688 0.0839,0.1667 0.0584,0.2764 L 8.3459,7.823 C 8.2974,8.0308 8.0896,8.1993 7.8817,8.1993 H 6.0316 C 5.8239,8.1993 5.6947,8.0308 5.7431,7.823 Z m -1.0695,4.6013 0.316,-1.354 C 5.0381,10.8625 5.2457,10.694 5.4536,10.694 h 1.8288 c 0.2079,0 0.337,0.1685 0.2885,0.3763 l -0.3158,1.354 C 7.2066,12.6321 6.9988,12.8006 6.7909,12.8006 H 4.9622 c -0.2078,0 -0.337,-0.1685 -0.2886,-0.3763 z M 4.371,24.8323 4.056,26.1826 C 4.0075,26.3904 3.7998,26.5588 3.592,26.5588 H 1.7502 c -0.2078,0 -0.3371,-0.1685 -0.2886,-0.3762 l 0.315,-1.3503 C 1.8251,24.6244 2.0328,24.456 2.2406,24.456 h 1.8418 c 0.208,0 0.3371,0.1685 0.2886,0.3763 z m 1.0766,-4.553 -0.3168,1.3576 c -0.0485,0.2079 -0.2561,0.3763 -0.464,0.3763 H 2.8105 c -0.2078,0 -0.3371,-0.1685 -0.2886,-0.3763 l 0.3168,-1.3576 c 0.0485,-0.2078 0.2562,-0.3762 0.464,-0.3762 H 5.159 c 0.2078,0 0.3371,0.1685 0.2886,0.3762 z m 0.277,-2.8624 H 3.8828 c -0.2078,0 -0.337,-0.1685 -0.2886,-0.3763 l 0.3151,-1.3503 c 0.0485,-0.2079 0.2561,-0.3762 0.4642,-0.3762 h 1.8417 c 0.208,0 0.337,0.1684 0.2886,0.3762 l -0.3151,1.3503 c -0.0485,0.2079 -0.2562,0.3763 -0.464,0.3763 z m 18.0905,5.8728 H 6.3934 c -0.2078,0 -0.3369,-0.1685 -0.2884,-0.3763 L 10.1955,5.379 c 0.0486,-0.208 0.2563,-0.3764 0.4642,-0.3764 h 17.4217 c 0.2078,0 0.3371,0.1685 0.2886,0.3764 l -4.0906,17.5343 c -0.0485,0.2079 -0.2562,0.3763 -0.4642,0.3763 z m 3.8407,1.5425 -0.3167,1.3575 c -0.0485,0.2079 -0.2563,0.3763 -0.464,0.3763 h -1.8346 c -0.2078,0 -0.3371,-0.1685 -0.2886,-0.3763 l 0.3167,-1.3575 c 0.0485,-0.2079 0.2563,-0.3763 0.4642,-0.3763 h 1.8346 c 0.2078,0 0.3369,0.1685 0.2884,0.3763 z m 1.0766,-4.553 -0.3167,1.3576 c -0.0485,0.2079 -0.2563,0.3763 -0.4642,0.3763 h -1.8491 c -0.2078,0 -0.3369,-0.1685 -0.2884,-0.3763 l 0.3167,-1.3576 c 0.0485,-0.2078 0.2563,-0.3762 0.4642,-0.3762 h 1.8491 c 0.2078,0 0.3369,0.1685 0.2884,0.3762 z m 1.0707,-4.5891 -0.3135,1.3431 c -0.0485,0.2079 -0.2562,0.3763 -0.464,0.3763 h -1.8491 c -0.2078,0 -0.3371,-0.1685 -0.2886,-0.3763 l 0.3135,-1.3431 c 0.0484,-0.2079 0.2562,-0.3762 0.464,-0.3762 h 1.8491 c 0.2078,0 0.337,0.1684 0.2886,0.3762 z m 1.0805,-4.6325 -0.3167,1.3576 c -0.0485,0.208 -0.2563,0.3764 -0.4642,0.3764 h -1.8489 c -0.208,0 -0.3371,-0.1685 -0.2886,-0.3764 l 0.3167,-1.3576 c 0.0486,-0.2077 0.2563,-0.3763 0.4642,-0.3763 h 1.849 c 0.2078,0 0.3371,0.1686 0.2884,0.3763 z m 1.0723,-4.5962 -0.3167,1.3575 c -0.0485,0.2079 -0.2563,0.3763 -0.464,0.3763 H 29.326 c -0.2078,0 -0.3369,-0.1684 -0.2884,-0.3763 l 0.3167,-1.3575 c 0.0485,-0.2078 0.2563,-0.3763 0.4642,-0.3763 h 1.849 c 0.2079,0 0.3369,0.1685 0.2885,0.3763 z M 32.693,3.3021 c -0.0485,0.208 -0.2563,0.3764 -0.4642,0.3764 h -1.8491 c -0.2078,0 -0.3369,-0.1684 -0.2884,-0.3764 L 30.408,1.9446 c 0.0485,-0.2078 0.2563,-0.3763 0.4642,-0.3763 h 1.8489 c 0.208,0 0.337,0.1685 0.2886,0.3763 z"
         id="path286"
         style="fill:none;fill-rule:evenodd;stroke:#ffffff;stroke-opacity:1" />
    </g>
  </g>
</svg>
