<?xml version="1.0" encoding="UTF-8"?><svg id="Layer_2" xmlns="http://www.w3.org/2000/svg" viewBox="0 0 121.395 28.3465"><defs><style>.cls-1,.cls-2{fill:#fff;}.cls-2{fill-rule:evenodd;}</style></defs><g id="Layer_1-2"><g><g id="CSFD"><path class="cls-2" d="m98.7145,6.1936c-.2107-1.2913-.6979-2.4469-1.4606-3.4681-.6053-.8408-1.4308-1.4414-2.4769-1.8019-1.0467-.3601-2.2696-.5406-3.6692-.5406h-9.0285l-1.1578,4.9939h8.5787c1.2198,0,2.1111.5102,2.6749,1.5307.517.9605.6203,2.1109.3097,3.4513-.3386,1.4609-1.1288,2.6613-2.3704,3.6014-1.4345,1.0804-3.2952,1.6206-5.583,1.6206l1.814-7.6865h-5.975l-2.9274,12.4883h7.7989c1.1796,0,2.4428-.165,3.7893-.4956,1.346-.3299,2.6113-.8058,3.7951-1.4261,1.3066-.7207,2.4865-1.8415,3.5393-3.3633,1.0521-1.5215,1.783-3.1632,2.1914-4.9248.3156-1.3615.3679-2.6879.1575-3.9792Z"/></g><g><path class="cls-1" d="m53.9684,8.627l-.5332,2.3636c-.6616,2.9423-1.85,5.3196-3.5657,7.1318-1.7152,1.8127-3.722,2.7193-6.0213,2.7193-2.3572,0-4.0851-1.0203-5.1858-3.0604-1.1007-2.0411-1.307-4.5889-.6194-7.6454.665-2.9796,1.924-5.4137,3.7764-7.3024,1.851-1.8887,3.8979-2.8335,6.1395-2.8335,1.4663,0,2.6899.4131,3.6725,1.2389.9826.8253,1.7132,1.9499,2.1915,3.3736l-4.2204,2.8193c-.469-1.234-1.3428-1.851-2.6208-1.851-1.035,0-1.9916.4509-2.8698,1.3521-.8792.9022-1.4824,2.0641-1.8078,3.4877-.3229,1.3859-.2602,2.5865.1862,3.6019.4464,1.0154,1.1864,1.5231,2.2214,1.5231,1.5231,0,2.6909-.6925,3.502-2.0783h-3.0393l1.1208-4.8403h7.6733Z"/><path class="cls-1" d="m56.5005,20.8417c-2.5581,0-4.1224-1.4143-4.6928-4.2424l4.1234-2.7051c.1059.5317.2666.9022.4832,1.111.2171.2088.5126.3131.886.3131.9625,0,1.5692-.541,1.8181-1.6236L62.1837.4558h4.3106l-3.0996,13.3815c-1.0894,4.6693-3.3883,7.0044-6.8941,7.0044Z"/><path class="cls-1" d="m78.2684,6.3492c-.4298,1.7466-1.2403,3.0565-2.4327,3.9293,1.0311,1.0629,1.3359,2.5723.9149,4.5272-.3509,1.6701-1.1041,3.0178-2.2611,4.043-1.156,1.0247-2.5831,1.5373-4.2777,1.5373h-6.3806L68.4349.4558h5.7768c1.6378,0,2.8262.5552,3.5662,1.6652.738,1.111.9017,2.5204.4905,4.2282Zm-5.6489,7.716c.195-.8159-.0039-1.2815-.5964-1.3952l-2.0876-.0284-.667,2.8472h1.8113c.3587,0,.6763-.1284.9532-.3842.2769-.2563.4714-.6023.5866-1.0394Zm.4224-8.7123h-1.4221l-.6287,2.6762,1.6623-.0284c.643-.1137,1.0526-.5503,1.2276-1.3094.1034-.4749.0696-.8159-.1044-1.0252-.1735-.2088-.419-.3131-.7346-.3131Z"/></g><g id="_.cz"><path class="cls-2" d="m112.1746,8.3444l-.7013,2.9891h3.8588l-1.0169,1.5127h-.0046l-4.95,7.4909h8.8736l.7101-3.0252h-3.8417l2.9776-4.4658h-.0067l1.0485-1.5127h.0168l1.9099-2.9891h-8.874Zm-15.9084,11.9927h2.9942l.7014-2.9892h-2.9939l-.7017,2.9892Zm9.5163-3.5835c-.6664-.4918-.8609-1.3263-.5847-2.503.2365-1.0083.8391-1.7584,1.8085-2.2508.7784-.3961,1.7206-.5943,2.8269-.5943h.8116l.7185-3.0611h-2.1464c-1.9839,0-3.6961.5582-5.1365,1.6746-1.4406,1.1165-2.3663,2.5512-2.7776,4.3037-.3352,1.4287-.2325,2.7073.3085,3.8356.693,1.4525,1.9834,2.1788,3.8715,2.1788h3.0659l.7016-2.9892h-.8477c-1.2146,0-2.0879-.1981-2.6202-.5943Z"/></g><g id="hlavia"><path class="cls-2" d="m18.4912,7.4417c-2.6442,0-5.1845,2.1618-5.6741,4.8287-.4896,2.6668,1.257,4.8288,3.9012,4.8288s5.1845-2.162,5.6741-4.8288c.4896-2.6669-1.257-4.8287-3.9012-4.8287Z"/></g><g id="telo"><path class="cls-2" d="m16.0144,16.9244c-3.9158,0-7.5404,3.0464-8.574,7.0049h15.3642c-.0255-3.9585-2.8743-7.0049-6.7902-7.0049Z"/></g><g id="film._pas"><path class="cls-2" d="m29.5373.3751l-.5626,2.4114c-.0485.2078-.2563.3763-.4642.3763H11.1168c-.208,0-.3371-.1685-.2886-.3763l.5626-2.4114h-5.0434L.1042,27.1365h.0091l-.1133.4857h5.0063l.5134-2.2002c.0485-.2079.2562-.3763.464-.3763h17.3939c.2079,0,.3369.1685.2885.3763l-.3999,1.7144h.0056l-.1108.4756h.0065l-.0016.0067h5.1202l.1125-.4823h.0094L34.6512.3751h-5.1139ZM6.7973,3.3041l.3157-1.3531c.0485-.2078.2563-.3764.4642-.3764h1.8434c.2078,0,.3371.1686.2886.3764l-.3156,1.3531c-.0487.2078-.2563.3763-.4642.3763h-1.8436c-.2077,0-.3369-.1685-.2885-.3763Zm-1.0542,4.5189l.0921-.3947c.0016-.0188.003-.0378.0077-.0573l.2105-.9022c.0485-.2079.2563-.3763.4641-.3763h1.8346c.1087,0,.1949.0467.2464.1206.059.0688.0839.1667.0584.2764l-.311,1.3335c-.0485.2078-.2563.3763-.4642.3763h-1.8501c-.2077,0-.3369-.1685-.2885-.3763Zm-1.0695,4.6013l.316-1.354c.0485-.2078.2561-.3763.464-.3763h1.8288c.2079,0,.337.1685.2885.3763l-.3158,1.354c-.0485.2078-.2563.3763-.4642.3763h-1.8287c-.2078,0-.337-.1685-.2886-.3763Zm-.3026,12.408l-.315,1.3503c-.0485.2078-.2562.3762-.464.3762h-1.8418c-.2078,0-.3371-.1685-.2886-.3762l.315-1.3503c.0485-.2079.2562-.3763.464-.3763h1.8418c.208,0,.3371.1685.2886.3763Zm1.0766-4.553l-.3168,1.3576c-.0485.2079-.2561.3763-.464.3763h-1.8563c-.2078,0-.3371-.1685-.2886-.3763l.3168-1.3576c.0485-.2078.2562-.3762.464-.3762h1.8563c.2078,0,.3371.1685.2886.3762Zm.277-2.8624h-1.8418c-.2078,0-.337-.1685-.2886-.3763l.3151-1.3503c.0485-.2079.2561-.3762.4642-.3762h1.8417c.208,0,.337.1684.2886.3762l-.3151,1.3503c-.0485.2079-.2562.3763-.464.3763Zm18.0905,5.8728H6.3934c-.2078,0-.3369-.1685-.2884-.3763L10.1955,5.379c.0486-.208.2563-.3764.4642-.3764h17.4217c.2078,0,.3371.1685.2886.3764l-4.0906,17.5343c-.0485.2079-.2562.3763-.4642.3763Zm3.8407,1.5425l-.3167,1.3575c-.0485.2079-.2563.3763-.464.3763h-1.8346c-.2078,0-.3371-.1685-.2886-.3763l.3167-1.3575c.0485-.2079.2563-.3763.4642-.3763h1.8346c.2078,0,.3369.1685.2884.3763Zm1.0766-4.553l-.3167,1.3576c-.0485.2079-.2563.3763-.4642.3763h-1.8491c-.2078,0-.3369-.1685-.2884-.3763l.3167-1.3576c.0485-.2078.2563-.3762.4642-.3762h1.8491c.2078,0,.3369.1685.2884.3762Zm1.0707-4.5891l-.3135,1.3431c-.0485.2079-.2562.3763-.464.3763h-1.8491c-.2078,0-.3371-.1685-.2886-.3763l.3135-1.3431c.0484-.2079.2562-.3762.464-.3762h1.8491c.2078,0,.337.1684.2886.3762Zm1.0805-4.6325l-.3167,1.3576c-.0485.208-.2563.3764-.4642.3764h-1.8489c-.208,0-.3371-.1685-.2886-.3764l.3167-1.3576c.0486-.2077.2563-.3763.4642-.3763h1.849c.2078,0,.3371.1686.2884.3763Zm1.0723-4.5962l-.3167,1.3575c-.0485.2079-.2563.3763-.464.3763h-1.8492c-.2078,0-.3369-.1684-.2884-.3763l.3167-1.3575c.0485-.2078.2563-.3763.4642-.3763h1.849c.2079,0,.3369.1685.2885.3763Zm.7371-3.1593c-.0485.208-.2563.3764-.4642.3764h-1.8491c-.2078,0-.3369-.1684-.2884-.3764l.3167-1.3575c.0485-.2078.2563-.3763.4642-.3763h1.8489c.208,0,.337.1685.2886.3763l-.3167,1.3575Z"/></g><g id="_R_"><path class="cls-2" d="m120.0939,5.1232v-.0204c.1902-.0614.3402-.1945.3402-.3992,0-.1638-.0701-.2867-.1702-.3584-.11-.0819-.2501-.133-.5604-.133-.2703,0-.4804.0307-.6307.0511v1.6787h.3804v-.6653h.1803c.2101,0,.3103.0817.3404.2558.0501.2048.0799.3482.13.4095h.4004c-.0302-.0612-.0701-.1536-.1202-.4095-.0501-.225-.13-.3582-.2901-.4094Zm-.4506-.1228h-.18v-.4811c.0399-.0103.11-.0205.2101-.0205.2402,0,.3506.1023.3506.2559,0,.1741-.1705.2457-.3807.2457Zm.0802-1.6072h-.0101c-.9411,0-1.6916.7371-1.6916,1.6788s.7505,1.689,1.6916,1.689,1.6817-.7473,1.6817-1.689-.7407-1.6788-1.6716-1.6788Zm0,3.0198c-.7305,0-1.2814-.5937-1.2814-1.341,0-.737.5509-1.3409,1.2614-1.3409h.0099c.7207,0,1.2614.6039,1.2614,1.3513,0,.737-.5407,1.3409-1.2513,1.3306Z"/></g><g><path class="cls-1" d="m34.9482,25.3478c-.0172-.3254-.1387-.6072-.5155-.6072-.5288,0-.5984.5812-.5984,1.2962s.0696,1.2957.5984,1.2957.5675-.6327.5675-1.0443h-.6111v-.3122h.9581v1.6079h-.2862v-.4205h-.0088c-.0823.2646-.3293.4812-.6675.4812-.8061,0-.9492-.7758-.9492-1.6079,0-.7802.1431-1.6079.9973-1.6079.8885,0,.91.7581.9144.9189h-.3989Z"/><path class="cls-1" d="m35.5941,25.261h.3989l.4592,1.8637h.0088l.4077-1.8637h.3984l-.6719,2.4787c-.0867.321-.1818.6067-.6194.6067-.1431,0-.2039-.0083-.2646-.0127v-.2862c.0519.0088.1215.0132.2127.0132.1686,0,.2426-.1.2857-.2254l.0696-.2039-.6851-2.3704Z"/><path class="cls-1" d="m37.5803,25.261h.347v.273h.0083c.0956-.2122.3381-.3337.5636-.3337.2686,0,.4293.1039.5028.3685.1039-.2039.3122-.3685.5503-.3685.6111,0,.6111.4636.6111.7366v1.6471h-.3641v-1.6035c0-.1779-.0127-.468-.3122-.468-.1691,0-.4332.1039-.4332.468v1.6035h-.3641v-1.6035c0-.1779-.0127-.468-.3122-.468-.1691,0-.4332.1039-.4332.468v1.6035h-.3641v-2.3229Z"/><path class="cls-1" d="m40.6692,25.261h.347v.273h.0088c.0951-.2122.3377-.3337.5631-.3337.6111,0,.6111.4636.6111.7366v1.6471h-.3641v-1.6035c0-.1779-.0127-.468-.3421-.468-.195,0-.4597.1299-.4597.468v1.6035h-.3641v-2.3229Z"/><path class="cls-1" d="m42.6162,25.9628c0-.5283.2254-.7625.7802-.7625.7067,0,.7067.4249.7067.6675v1.2957c0,.0956,0,.1862.1127.1862.0475,0,.0691-.0083.0867-.0216v.2602c-.026.0044-.1215.0216-.2127.0216-.1387,0-.3117,0-.3293-.2989h-.0083c-.1171.2078-.3426.3337-.5592.3337-.4337,0-.6332-.2602-.6332-.6763,0-.3249.1387-.5503.4381-.6415l.4896-.147c.2646-.0823.2646-.1563.2646-.3514,0-.2166-.1304-.3421-.3729-.3421-.3989,0-.3989.3724-.3989.4548v.0216h-.3641Zm1.1227.3558c-.1343.1426-.4553.173-.6199.273-.1166.0735-.1774.1647-.1774.368,0,.2342.0823.3989.3293.3989.2382,0,.468-.2039.468-.442v-.5979Zm-.2558-1.9936h.4249l-.468.615h-.2602l.3033-.615Z"/><path class="cls-1" d="m44.524,25.261h1.3996v.3033l-1.0399,1.7074h1.0316v.3122h-1.4432v-.2862l1.0531-1.725h-1.0012v-.3117Z"/><path class="cls-1" d="m46.298,24.4897h.3641v.4161h-.3641v-.4161Zm0,.7714h.3641v2.3229h-.3641v-2.3229Z"/><path class="cls-1" d="m47.8823,25.2003c.6719,0,.8365.5675.8365,1.2222,0,.6542-.1691,1.2222-.8365,1.2222-.6714,0-.8365-.568-.8365-1.2222,0-.6547.1691-1.2222.8365-1.2222Zm.4553,1.2222c0-.5028-.0735-.936-.4636-.936-.3685,0-.4464.4332-.4464.936s.0735.936.4464.936c.3857,0,.4636-.4332.4636-.936Z"/><path class="cls-1" d="m49.0756,26.1838h1.0571v.3381h-1.0571v-.3381Z"/><path class="cls-1" d="m51.9596,26.6954c0,.5503-.1392.9492-.7763.9492-.5155,0-.7233-.3337-.7233-.7067v-.2558h.3636v.2254c0,.2514.1.4249.3558.4249.3465,0,.3984-.2254.3984-.6503v-2.1925h.3818v2.2058Z"/><path class="cls-1" d="m53.1691,25.2003c.6719,0,.8365.5675.8365,1.2222,0,.6542-.1691,1.2222-.8365,1.2222-.6714,0-.8365-.568-.8365-1.2222,0-.6547.1691-1.2222.8365-1.2222Zm.4553,1.2222c0-.5028-.0735-.936-.4636-.936-.3685,0-.4464.4332-.4464.936s.0735.936.4464.936c.3857,0,.4636-.4332.4636-.936Z"/><path class="cls-1" d="m54.3099,25.9628c0-.5283.2254-.7625.7802-.7625.7067,0,.7067.4249.7067.6675v1.2957c0,.0956,0,.1862.1127.1862.0475,0,.0691-.0083.0867-.0216v.2602c-.026.0044-.1215.0216-.2127.0216-.1387,0-.3117,0-.3293-.2989h-.0083c-.1171.2078-.3426.3337-.5592.3337-.4337,0-.6332-.2602-.6332-.6763,0-.3249.1387-.5503.4381-.6415l.4896-.147c.2646-.0823.2646-.1563.2646-.3514,0-.2166-.1304-.3421-.3729-.3421-.3989,0-.3989.3724-.3989.4548v.0216h-.3641Zm1.1227.3558c-.1343.1426-.4553.173-.6199.273-.1166.0735-.1774.1647-.1774.368,0,.2342.0823.3989.3293.3989.2382,0,.468-.2039.468-.442v-.5979Z"/><path class="cls-1" d="m57.3929,25.9672c0-.2254-.0912-.4807-.3685-.4807-.2254,0-.4553.1127-.4553.962,0,.3033.0044.91.442.91.3122,0,.3818-.3293.3818-.5807h.3636c0,.3685-.1818.8669-.7625.8669-.568,0-.8061-.3945-.8061-1.1918,0-.5807.1127-1.2526.8277-1.2526.6327,0,.741.4984.741.7669h-.3636Z"/><path class="cls-1" d="m58.1304,24.4897h.3641v1.0355h.0088c.0956-.1906.3509-.3249.5592-.3249.5979,0,.5979.4636.5979.7366v1.6471h-.3641v-1.6035c0-.1779-.0127-.468-.3421-.468-.195,0-.4597.1299-.4597.468v1.6035h-.3641v-3.0942Z"/><path class="cls-1" d="m60.1554,24.4897h.3636v.4161h-.3636v-.4161Zm0,.7714h.3636v2.3229h-.3636v-2.3229Z"/><path class="cls-1" d="m61.0507,25.261h.347v.273h.0083c.0956-.2122.3381-.3337.5636-.3337.2686,0,.4293.1039.5028.3685.1039-.2039.3122-.3685.5503-.3685.6111,0,.6111.4636.6111.7366v1.6471h-.3641v-1.6035c0-.1779-.0127-.468-.3122-.468-.1686,0-.4332.1039-.4332.468v1.6035h-.3641v-1.6035c0-.1779-.0127-.468-.3122-.468-.1686,0-.4332.1039-.4332.468v1.6035h-.3641v-2.3229Z"/><path class="cls-1" d="m65.1363,25.9412c0-.2945-.0779-.4548-.3421-.4548-.1171,0-.3773.0304-.3773.3553,0,.273.2862.3249.5724.4205.2818.0951.5675.195.5675.6542,0,.4896-.3161.7282-.7498.7282-.7885,0-.7973-.5851-.7973-.8233h.3641c0,.2813.0779.5371.4332.5371.1171,0,.3857-.0564.3857-.3857,0-.3122-.2857-.3769-.5675-.4724s-.5719-.1779-.5719-.6586c0-.4337.3377-.6415.741-.6415.6758,0,.7018.468.7062.741h-.3641Z"/><path class="cls-1" d="m67.6341,27.5839h-.4249l-.6459-1.1487-.2989.3641v.7846h-.3641v-3.0942h.3641v1.8416h.0088l.815-1.0703h.4244l-.7062.8752.8277,1.4476Z"/><path class="cls-1" d="m68.5452,25.2003c.6719,0,.8365.5675.8365,1.2222,0,.6542-.1691,1.2222-.8365,1.2222-.6714,0-.8365-.568-.8365-1.2222,0-.6547.1691-1.2222.8365-1.2222Zm.4553,1.2222c0-.5028-.0735-.936-.4636-.936-.3685,0-.4464.4332-.4464.936s.0735.936.4464.936c.3857,0,.4636-.4332.4636-.936Z"/><path class="cls-1" d="m69.7384,26.1838h1.0571v.3381h-1.0571v-.3381Z"/><path class="cls-1" d="m71.2782,24.4897h.9492c.4028,0,.7929.1906.7929.7929,0,.2818-.1691.5636-.4509.6459v.0083c.3818.0912.5508.3818.5508.763,0,.6283-.3558.8841-1.0012.8841h-.8409v-3.0942Zm.3813,1.3344h.4376c.1607,0,.5244-.0387.5244-.5155,0-.3205-.1602-.5072-.5327-.5072h-.4293v1.0228Zm0,1.4476h.52c.4033,0,.542-.273.542-.5719,0-.4249-.273-.5895-.6067-.5895h-.4553v1.1614Z"/><path class="cls-1" d="m73.4541,25.9628c0-.5283.2254-.7625.7802-.7625.7067,0,.7067.4249.7067.6675v1.2957c0,.0956,0,.1862.1127.1862.0475,0,.0691-.0083.0867-.0216v.2602c-.026.0044-.1215.0216-.2127.0216-.1387,0-.3117,0-.3293-.2989h-.0088c-.1166.2078-.3421.3337-.5587.3337-.4337,0-.6332-.2602-.6332-.6763,0-.3249.1387-.5503.4381-.6415l.4896-.147c.2641-.0823.2641-.1563.2641-.3514,0-.2166-.1299-.3421-.3724-.3421-.3989,0-.3989.3724-.3989.4548v.0216h-.3641Zm1.1227.3558c-.1343.1426-.4553.173-.6199.273-.1166.0735-.1774.1647-.1774.368,0,.2342.0823.3989.3293.3989.2382,0,.468-.2039.468-.442v-.5979Z"/><path class="cls-1" d="m75.4315,25.261h.3641v.3465h.0088c.1039-.221.2426-.4072.5028-.4072.0735,0,.1255.0088.1602.026v.3553c-.0348-.0044-.0779-.0172-.195-.0172-.1818,0-.4768.1647-.4768.5503v1.4692h-.3641v-2.3229Z"/><path class="cls-1" d="m76.712,25.261h.3641v.3465h.0088c.1039-.221.2426-.4072.5028-.4072.0735,0,.1255.0088.1602.026v.3553c-.0348-.0044-.0779-.0172-.195-.0172-.1818,0-.4768.1647-.4768.5503v1.4692h-.3641v-2.3229Z"/><path class="cls-1" d="m77.9361,25.9628c0-.5283.2254-.7625.7802-.7625.7067,0,.7067.4249.7067.6675v1.2957c0,.0956,0,.1862.1127.1862.0475,0,.0691-.0083.0867-.0216v.2602c-.026.0044-.1215.0216-.2127.0216-.1387,0-.3117,0-.3293-.2989h-.0088c-.1166.2078-.3421.3337-.5587.3337-.4337,0-.6332-.2602-.6332-.6763,0-.3249.1387-.5503.4381-.6415l.4896-.147c.2641-.0823.2641-.1563.2641-.3514,0-.2166-.1299-.3421-.3724-.3421-.3989,0-.3989.3724-.3989.4548v.0216h-.3641Zm1.1227.3558c-.1343.1426-.4553.173-.6199.273-.1166.0735-.1774.1647-.1774.368,0,.2342.0823.3989.3293.3989.2382,0,.468-.2039.468-.442v-.5979Z"/><path class="cls-1" d="m79.9135,25.261h.347v.273h.0088c.0951-.2122.3377-.3337.5631-.3337.6111,0,.6111.4636.6111.7366v1.6471h-.3641v-1.6035c0-.1779-.0127-.468-.3421-.468-.195,0-.4597.1299-.4597.468v1.6035h-.3641v-2.3229Z"/><path class="cls-1" d="m83.4464,27.5839h-.3465v-.2862h-.0088c-.0475.1735-.2514.347-.5028.347-.5503,0-.7581-.4901-.7581-1.2222,0-.4856.0779-1.2222.7321-1.2222.2083,0,.4293.1255.5116.3249h.0083v-1.0355h.3641v3.0942Zm-.8106-.2514c.4033,0,.4685-.3813.4685-.91,0-.4509-.0784-.91-.4685-.91-.3377,0-.4244.3553-.4244.91s.0867.91.4244.91Z"/><path class="cls-1" d="m84.6436,25.2003c.6719,0,.8365.5675.8365,1.2222,0,.6542-.1691,1.2222-.8365,1.2222-.6714,0-.8365-.568-.8365-1.2222,0-.6547.1691-1.2222.8365-1.2222Zm.4553,1.2222c0-.5028-.0735-.936-.4636-.936-.3685,0-.4464.4332-.4464.936s.0735.936.4464.936c.3857,0,.4636-.4332.4636-.936Z"/><path class="cls-1" d="m85.6453,25.261h.3989l.4332,1.8637h.0088l.4332-1.8637h.3989l-.6283,2.3229h-.4161l-.6287-2.3229Z"/><path class="cls-1" d="m88.5939,25.9412c0-.2945-.0779-.4548-.3421-.4548-.1171,0-.3773.0304-.3773.3553,0,.273.2862.3249.5724.4205.2818.0951.5675.195.5675.6542,0,.4896-.3161.7282-.7498.7282-.7885,0-.7973-.5851-.7973-.8233h.3641c0,.2813.0779.5371.4332.5371.1171,0,.3857-.0564.3857-.3857,0-.3122-.2857-.3769-.5675-.4724s-.5719-.1779-.5719-.6586c0-.4337.3377-.6415.741-.6415.6758,0,.7023.468.7062.741h-.3641Z"/><path class="cls-1" d="m91.0918,27.5839h-.4249l-.6454-1.1487-.2994.3641v.7846h-.3641v-3.0942h.3641v1.8416h.0088l.815-1.0703h.4244l-.7062.8752.8277,1.4476Z"/><path class="cls-1" d="m91.2226,25.9628c0-.5283.2254-.7625.7802-.7625.7067,0,.7067.4249.7067.6675v1.2957c0,.0956,0,.1862.1127.1862.0475,0,.0691-.0083.0867-.0216v.2602c-.026.0044-.1215.0216-.2127.0216-.1387,0-.3117,0-.3293-.2989h-.0088c-.1166.2078-.3421.3337-.5587.3337-.4337,0-.6332-.2602-.6332-.6763,0-.3249.1387-.5503.4381-.6415l.4896-.147c.2641-.0823.2641-.1563.2641-.3514,0-.2166-.1299-.3421-.3724-.3421-.3989,0-.3989.3724-.3989.4548v.0216h-.3641Zm1.1227.3558c-.1343.1426-.4553.173-.6199.273-.1166.0735-.1774.1647-.1774.368,0,.2342.0823.3989.3293.3989.2382,0,.468-.2039.468-.442v-.5979Zm-.2558-1.9936h.4249l-.468.615h-.2602l.3033-.615Z"/><path class="cls-1" d="m94.3467,25.5468h-.3381v-.2857h.3381v-.273c0-.3514.1514-.5332.5023-.5332h.2646v.3122h-.1691c-.1558,0-.2342.0603-.2342.221v.273h.3989v.2857h-.3989v2.0372h-.3636v-2.0372Zm1.0355-1.0571h.3641v.4161h-.3641v-.4161Zm0,.7714h.3641v2.3229h-.3641v-2.3229Z"/><path class="cls-1" d="m96.2634,24.4897h.3641v3.0942h-.3641v-3.0942Z"/><path class="cls-1" d="m97.1582,25.261h.347v.273h.0083c.0956-.2122.3381-.3337.5636-.3337.2686,0,.4293.1039.5028.3685.1039-.2039.3122-.3685.5503-.3685.6111,0,.6111.4636.6111.7366v1.6471h-.3641v-1.6035c0-.1779-.0127-.468-.3122-.468-.1686,0-.4332.1039-.4332.468v1.6035h-.3641v-1.6035c0-.1779-.0127-.468-.3122-.468-.1686,0-.4332.1039-.4332.468v1.6035h-.3641v-2.3229Z"/><path class="cls-1" d="m100.9709,25.2003c.6719,0,.8365.5675.8365,1.2222,0,.6542-.1691,1.2222-.8365,1.2222-.6714,0-.8365-.568-.8365-1.2222,0-.6547.1691-1.2222.8365-1.2222Zm.4553,1.2222c0-.5028-.0735-.936-.4636-.936-.3685,0-.4464.4332-.4464.936s.0735.936.4464.936c.3857,0,.4636-.4332.4636-.936Z"/><path class="cls-1" d="m101.973,25.261h.3989l.4332,1.8637h.0088l.4332-1.8637h.3989l-.6283,2.3229h-.4161l-.6287-2.3229Z"/><path class="cls-1" d="m103.8681,25.9628c0-.5283.2254-.7625.7802-.7625.7067,0,.7067.4249.7067.6675v1.2957c0,.0956,0,.1862.1127.1862.0475,0,.0691-.0083.0867-.0216v.2602c-.026.0044-.1215.0216-.2127.0216-.1387,0-.3117,0-.3293-.2989h-.0088c-.1166.2078-.3421.3337-.5587.3337-.4337,0-.6332-.2602-.6332-.6763,0-.3249.1387-.5503.4381-.6415l.4896-.147c.2641-.0823.2641-.1563.2641-.3514,0-.2166-.1299-.3421-.3724-.3421-.3989,0-.3989.3724-.3989.4548v.0216h-.3641Zm1.1227.3558c-.1343.1426-.4553.173-.6199.273-.1166.0735-.1774.1647-.1774.368,0,.2342.0823.3989.3293.3989.2382,0,.468-.2039.468-.442v-.5979Zm-.2558-1.9936h.4249l-.468.615h-.2602l.3033-.615Z"/><path class="cls-1" d="m108.4139,27.5839h-.3465v-.2862h-.0088c-.0475.1735-.2514.347-.5028.347-.5503,0-.7581-.4901-.7581-1.2222,0-.4856.0779-1.2222.7321-1.2222.2083,0,.4293.1255.5116.3249h.0083v-1.0355h.3641v3.0942Zm-.8106-.2514c.4033,0,.4685-.3813.4685-.91,0-.4509-.0784-.91-.4685-.91-.3377,0-.4244.3553-.4244.91s.0867.91.4244.91Z"/><path class="cls-1" d="m108.8304,25.9628c0-.5283.2254-.7625.7802-.7625.7067,0,.7067.4249.7067.6675v1.2957c0,.0956,0,.1862.1127.1862.0475,0,.0691-.0083.0867-.0216v.2602c-.026.0044-.1215.0216-.2127.0216-.1387,0-.3117,0-.3293-.2989h-.0088c-.1166.2078-.3421.3337-.5587.3337-.4337,0-.6332-.2602-.6332-.6763,0-.3249.1387-.5503.4381-.6415l.4896-.147c.2641-.0823.2641-.1563.2641-.3514,0-.2166-.1299-.3421-.3724-.3421-.3989,0-.3989.3724-.3989.4548v.0216h-.3641Zm1.1227.3558c-.1343.1426-.4553.173-.6199.273-.1166.0735-.1774.1647-.1774.368,0,.2342.0823.3989.3293.3989.2382,0,.468-.2039.468-.442v-.5979Z"/><path class="cls-1" d="m110.9597,24.5848h.3636v.6763h.4033v.2857h-.4033v1.4912c0,.1862.048.2597.2387.2597.0779,0,.121-.0083.1602-.0127v.2989c-.0475.0088-.1431.026-.2945.026-.3773,0-.468-.1558-.468-.4592v-1.604h-.3381v-.2857h.3381v-.6763Z"/><path class="cls-1" d="m111.9153,25.9628c0-.5283.2254-.7625.7802-.7625.7067,0,.7067.4249.7067.6675v1.2957c0,.0956,0,.1862.1127.1862.0475,0,.0691-.0083.0867-.0216v.2602c-.026.0044-.1215.0216-.2127.0216-.1387,0-.3117,0-.3293-.2989h-.0083c-.1171.2078-.3426.3337-.5592.3337-.4337,0-.6332-.2602-.6332-.6763,0-.3249.1387-.5503.4381-.6415l.4896-.147c.2646-.0823.2646-.1563.2646-.3514,0-.2166-.1304-.3421-.3729-.3421-.3989,0-.3989.3724-.3989.4548v.0216h-.3641Zm1.1227.3558c-.1343.1426-.4553.173-.6199.273-.1166.0735-.1774.1647-.1774.368,0,.2342.0823.3989.3293.3989.2382,0,.468-.2039.468-.442v-.5979Z"/><path class="cls-1" d="m113.8922,24.4897h.3641v1.0355h.0088c.0823-.1995.3033-.3249.5376-.3249.6283,0,.7062.7366.7062,1.2222,0,.6542-.221,1.2222-.7586,1.2222-.2509,0-.4548-.1735-.5023-.347h-.0088v.2862h-.347v-3.0942Zm.8106,2.8428c.3381,0,.4249-.3813.4249-.91,0-.5547-.0867-.91-.4249-.91-.3901,0-.468.4592-.468.91,0,.4768.0779.91.468.91Z"/><path class="cls-1" d="m115.8392,25.9628c0-.5283.2254-.7625.7802-.7625.7067,0,.7067.4249.7067.6675v1.2957c0,.0956,0,.1862.1127.1862.0475,0,.0691-.0083.0867-.0216v.2602c-.026.0044-.1215.0216-.2127.0216-.1387,0-.3117,0-.3293-.2989h-.0088c-.1166.2078-.3421.3337-.5587.3337-.4337,0-.6332-.2602-.6332-.6763,0-.3249.1387-.5503.4381-.6415l.4896-.147c.2641-.0823.2641-.1563.2641-.3514,0-.2166-.1299-.3421-.3724-.3421-.3989,0-.3989.3724-.3989.4548v.0216h-.3641Zm1.1227.3558c-.1343.1426-.4553.173-.6199.273-.1166.0735-.1774.1647-.1774.368,0,.2342.0823.3989.3293.3989.2382,0,.468-.2039.468-.442v-.5979Zm-.2558-1.9936h.4249l-.468.615h-.2602l.3033-.615Z"/><path class="cls-1" d="m117.7475,25.261h1.3996v.3033l-1.0399,1.7074h1.0316v.3122h-1.4432v-.2862l1.0531-1.725h-1.0012v-.3117Z"/><path class="cls-1" d="m119.8028,26.4656c0,.3558,0,.8929.4464.8929.347,0,.3945-.3641.3945-.5371h.3641c0,.247-.1475.8233-.7802.8233-.5675,0-.8061-.3945-.8061-1.1918,0-.5807.1127-1.2526.8277-1.2526.7111,0,.7758.6199.7758,1.1183v.147h-1.2222Zm.8409-.2857v-.1259c0-.2597-.0823-.5675-.4028-.5675-.3818,0-.4249.468-.4249.6067v.0867h.8277Z"/></g></g></g></svg>